<svg xmlns="http://www.w3.org/2000/svg"><defs><symbol viewBox="0 0 6 12" fill="none" id="Facebook"><path d="M1.099 2.729v1.5H0v1.834h1.099v5.451h2.258v-5.45h1.515s.142-.88.21-1.842H3.365V2.968c0-.188.246-.44.49-.44h1.23V.618H3.412C1.043.618 1.1 2.454 1.1 2.728z" fill="#fff"/></symbol><symbol viewBox="0 0 16 11" fill="none" id="Twitter"><path d="M13.376 4.62c.847-.07 1.422-.455 1.643-.978-.306.188-1.254.393-1.778.198a6.462 6.462 0 00-.083-.346C12.758 2.028 11.392.847 9.96.99c.116-.047.233-.09.35-.13.158-.056 1.083-.206.937-.533C11.125.04 9.994.544 9.782.61c.28-.106.745-.287.795-.61-.43.059-.853.262-1.18.558A.81.81 0 009.625.11c-1.148.734-1.818 2.212-2.36 3.646-.427-.413-.805-.738-1.143-.919-.95-.51-2.087-1.041-3.87-1.703-.055.59.291 1.375 1.29 1.897-.216-.03-.612.035-.929.111.13.676.55 1.233 1.69 1.502-.521.035-.79.153-1.034.409.237.47.816 1.023 1.857.91-1.158.499-.472 1.423.47 1.285-1.607 1.66-4.14 1.538-5.595.15 3.798 5.175 12.055 3.06 13.285-1.925.922.008 1.464-.32 1.8-.68-.531.09-1.301-.003-1.71-.173z" fill="#fff"/></symbol><symbol viewBox="0 0 13 8" fill="none" id="Vk"><path d="M12.884 7.136c-.035-.064-.251-.57-1.291-1.611-1.089-1.09-.943-.913.369-2.799C12.76 1.578 13.08.877 12.98.578c-.095-.286-.683-.21-.683-.21L10.345.38s-.145-.021-.253.048a.59.59 0 00-.172.226s-.31.888-.722 1.644c-.87 1.594-1.22 1.678-1.361 1.58-.331-.231-.248-.928-.248-1.422C7.588.91 7.805.266 7.165.1c-.213-.055-.37-.092-.913-.098C5.555-.006 4.964.004 4.63.18c-.223.117-.394.38-.29.394.13.018.423.085.578.313.2.293.193.954.193.954s.116 1.819-.269 2.045c-.264.155-.625-.161-1.401-1.608-.398-.74-.698-1.56-.698-1.56S2.685.566 2.582.485c-.125-.1-.301-.13-.301-.13L.424.365s-.28.01-.382.14C-.048.622.035.862.035.862s1.455 3.67 3.1 5.52c1.511 1.696 3.226 1.584 3.226 1.584h.777s.235-.028.354-.167c.11-.128.106-.368.106-.368s-.015-1.125.47-1.29c.476-.163 1.089 1.087 1.738 1.568.49.363.864.284.864.284l1.736-.027s.909-.06.478-.83z" fill="#fff"/></symbol><symbol viewBox="0 0 59 59" fill="none" id="crown"><g clip-path="url(#crown_clip0)"><path d="M49.781 40.284H9.22a.922.922 0 01-.872-.623L2.283 21.975a.923.923 0 011.018-1.209.92.92 0 01.788.548c.75 1.703 3.416 7.198 6.527 7.198l.117-.003c1.877-.084 4.811-2.249 8.136-12.086a.922.922 0 011.746 0c1.136 3.355 4.94 12.035 8.891 12.035h.032c1.873-.023 4.753-2.126 7.838-12.014a.922.922 0 01.88-.647h.009a.921.921 0 01.876.665c.943 3.246 4.286 11.749 8.387 12.104 2.396.197 5.052-2.514 7.675-7.87a.921.921 0 011.7.704l-6.25 18.26a.922.922 0 01-.872.624zM9.877 38.44h39.245l3.612-10.553c-1.746 1.847-3.518 2.671-5.366 2.516-4.542-.395-7.659-6.94-9.108-10.787-2.56 7.145-5.417 10.646-8.7 10.684l-.054.001c-4.59 0-8.133-7.036-9.738-10.917-2.739 7.227-5.678 10.82-8.953 10.967-1.68.065-3.141-.772-4.4-2.013L9.877 38.44z" fill="#A07B50" stroke="#1F1C1D" stroke-width=".8"/></g></symbol><clipPath id="crown_clip0"><path fill="#fff" d="M0 0h59v59H0z"/></clipPath></defs></svg>