<svg xmlns="http://www.w3.org/2000/svg"><defs><symbol viewBox="0 0 6 12" id="Facebook"><path d="M1.099 2.729v1.5H0v1.834h1.099v5.451h2.258v-5.45h1.515s.142-.88.21-1.842H3.365V2.968c0-.188.246-.44.49-.44h1.23V.618H3.412C1.043.618 1.1 2.454 1.1 2.728z"/></symbol><symbol viewBox="0 0 16 11" id="Twitter"><path d="M13.376 4.62c.847-.07 1.422-.455 1.643-.978-.306.188-1.254.393-1.778.198a6.462 6.462 0 00-.083-.346C12.758 2.028 11.392.847 9.96.99c.116-.047.233-.09.35-.13.158-.056 1.083-.206.937-.533C11.125.04 9.994.544 9.782.61c.28-.106.745-.287.795-.61-.43.059-.853.262-1.18.558A.81.81 0 009.625.11c-1.148.734-1.818 2.212-2.36 3.646-.427-.413-.805-.738-1.143-.919-.95-.51-2.087-1.041-3.87-1.703-.055.59.291 1.375 1.29 1.897-.216-.03-.612.035-.929.111.13.676.55 1.233 1.69 1.502-.521.035-.79.153-1.034.409.237.47.816 1.023 1.857.91-1.158.499-.472 1.423.47 1.285-1.607 1.66-4.14 1.538-5.595.15 3.798 5.175 12.055 3.06 13.285-1.925.922.008 1.464-.32 1.8-.68-.531.09-1.301-.003-1.71-.173z"/></symbol><symbol viewBox="0 0 13 8" id="Vk"><path d="M12.884 7.136c-.035-.064-.251-.57-1.291-1.611-1.089-1.09-.943-.913.369-2.799C12.76 1.578 13.08.877 12.98.578c-.095-.286-.683-.21-.683-.21L10.345.38s-.145-.021-.253.048a.59.59 0 00-.172.226s-.31.888-.722 1.644c-.87 1.594-1.22 1.678-1.361 1.58-.331-.231-.248-.928-.248-1.422C7.588.91 7.805.266 7.165.1c-.213-.055-.37-.092-.913-.098C5.555-.006 4.964.004 4.63.18c-.223.117-.394.38-.29.394.13.018.423.085.578.313.2.293.193.954.193.954s.116 1.819-.269 2.045c-.264.155-.625-.161-1.401-1.608-.398-.74-.698-1.56-.698-1.56S2.685.566 2.582.485c-.125-.1-.301-.13-.301-.13L.424.365s-.28.01-.382.14C-.048.622.035.862.035.862s1.455 3.67 3.1 5.52c1.511 1.696 3.226 1.584 3.226 1.584h.777s.235-.028.354-.167c.11-.128.106-.368.106-.368s-.015-1.125.47-1.29c.476-.163 1.089 1.087 1.738 1.568.49.363.864.284.864.284l1.736-.027s.909-.06.478-.83z"/></symbol><symbol viewBox="0 0 15 31" fill="none" id="arrow"><path d="M14 .653L2 15.978l12 14.23" stroke-width="2"/></symbol><symbol viewBox="0 0 12 18" fill="none" id="arrow2"><path d="M.805 17.14l10.56-7.98L.805 1.18" stroke="#fff" stroke-width=".5"/></symbol><symbol viewBox="0 0 60 18" fill="none" id="arrow3"><path d="M60 9H1m0 0l13.486 8M1 9l13.486-8" stroke-opacity=".5" stroke-width=".5"/></symbol><symbol viewBox="0 0 107 97" id="consultation"><path d="M43.35 42.755c-7.085 0-12.849 5.764-12.849 12.848 0 6.475 4.804 10.342 12.849 10.342s12.848-3.866 12.848-10.342c0-7.084-5.764-12.848-12.848-12.848zm0 20.055c-3.628 0-9.715-.936-9.715-7.207 0-5.357 4.358-9.715 9.715-9.715 5.356 0 9.715 4.358 9.715 9.715 0 6.271-6.087 7.207-9.715 7.207zm-6.268-32.59c-3.202 0-5.327 3.96-5.327 6.58a5.333 5.333 0 005.327 5.328 5.333 5.333 0 005.328-5.327c0-2.62-2.125-6.581-5.328-6.581zm0 8.774A2.196 2.196 0 0134.89 36.8c0-1.482 1.25-3.447 2.193-3.447.944 0 2.194 1.965 2.194 3.447 0 1.21-.984 2.194-2.194 2.194zm12.535-8.774c-3.202 0-5.327 3.96-5.327 6.58a5.333 5.333 0 005.327 5.328 5.333 5.333 0 005.328-5.327c0-2.62-2.125-6.581-5.328-6.581zm0 8.774a2.196 2.196 0 01-2.193-2.194c0-1.482 1.25-3.447 2.193-3.447.943 0 2.194 1.965 2.194 3.447 0 1.21-.984 2.194-2.194 2.194zm10.028-1.254c-3.203 0-5.327 3.962-5.327 6.582a5.333 5.333 0 005.327 5.327 5.333 5.333 0 005.327-5.327c0-2.62-2.124-6.581-5.327-6.581zm0 8.775a2.196 2.196 0 01-2.194-2.194c0-1.482 1.251-3.447 2.194-3.447.943 0 2.194 1.965 2.194 3.447 0 1.21-.984 2.194-2.194 2.194zM27.054 37.74c-3.202 0-5.327 3.962-5.327 6.582a5.333 5.333 0 005.327 5.327 5.333 5.333 0 005.328-5.327c0-2.62-2.125-6.581-5.328-6.581zm0 8.775a2.196 2.196 0 01-2.193-2.194c0-1.482 1.25-3.447 2.193-3.447.944 0 2.194 1.965 2.194 3.447 0 1.21-.984 2.194-2.194 2.194z"/><path d="M46.693 52.783h-1.776v-1.776a1.567 1.567 0 10-3.134 0v1.776h-1.776a1.567 1.567 0 100 3.133h1.776v1.776a1.567 1.567 0 103.134 0v-1.776h1.776a1.567 1.567 0 100-3.133z"/><path d="M62.197 3.268A47.623 47.623 0 0047.528.972c-12.695 0-24.63 4.944-33.608 13.92C4.944 23.87 0 35.806 0 48.5c0 12.695 4.944 24.63 13.92 33.608 8.978 8.977 20.913 13.92 33.608 13.92a1.567 1.567 0 100-3.133c-11.858 0-23.006-4.618-31.391-13.003C7.752 71.507 3.134 60.358 3.134 48.5s4.618-23.006 13.003-31.392C24.522 8.723 35.67 4.106 47.528 4.106c4.692 0 9.302.721 13.705 2.144a1.581 1.581 0 001.973-1.009 1.582 1.582 0 00-1.01-1.973z"/><path d="M106.612 43.927l-5.502-6.289a1.583 1.583 0 00-2.211-.147l-4.383 3.834a47.533 47.533 0 00-13.38-26.433 47.661 47.661 0 00-11.538-8.51 1.581 1.581 0 00-2.115.657 1.582 1.582 0 00.657 2.116 44.546 44.546 0 0110.78 7.953c7.486 7.486 11.923 16.992 12.83 27.488.108 1.252 1.645 1.874 2.593 1.044l5.439-4.76 3.439 3.931L91.03 55.48c-.972.85-2.467.85-3.439 0L75.4 44.81l3.439-3.93 5 4.375c1.057.925 2.752.03 2.588-1.362C84.108 24.188 67.385 9.328 47.528 9.328c-21.6 0-39.171 17.573-39.171 39.172 0 21.6 17.572 39.171 39.171 39.171a1.567 1.567 0 100-3.133C27.657 84.538 11.49 68.37 11.49 48.5c0-19.872 16.167-36.038 36.038-36.038 16.792 0 31.149 11.551 35.016 27.497l-2.82-2.468a1.583 1.583 0 00-2.211.147l-5.503 6.29a1.567 1.567 0 00.147 2.21l13.371 11.7c2.139 1.87 5.428 1.87 7.566 0l13.371-11.7c.651-.57.717-1.56.147-2.21z"/><path d="M73.433 90.387h-11.63C66.983 86.532 75 79.362 75 71.898c0-5.471-4.452-9.923-9.924-9.923-5.472 0-9.923 4.452-9.923 9.923a1.567 1.567 0 103.133 0 6.797 6.797 0 016.79-6.79 6.797 6.797 0 016.79 6.79c0 9.023-15.794 18.617-15.953 18.712a1.582 1.582 0 00-.687 1.818 1.582 1.582 0 001.493 1.093h16.713a1.567 1.567 0 000-3.134zm25.07-6.685h-3.447v-20.16c0-.642-.407-1.234-1.006-1.464a1.582 1.582 0 00-1.802.508L75.534 84.313c-.777 1.011-.031 2.522 1.242 2.522h15.147v5.119a1.567 1.567 0 103.133 0v-5.118h3.447a1.566 1.566 0 100-3.134zm-6.58 0H79.957L91.923 68.15v15.553z"/><path d="M43.35 42.755c-7.085 0-12.849 5.764-12.849 12.848 0 6.475 4.804 10.342 12.849 10.342s12.848-3.866 12.848-10.342c0-7.084-5.764-12.848-12.848-12.848zm0 20.055c-3.628 0-9.715-.936-9.715-7.207 0-5.357 4.358-9.715 9.715-9.715 5.356 0 9.715 4.358 9.715 9.715 0 6.271-6.087 7.207-9.715 7.207zm-6.268-32.59c-3.202 0-5.327 3.96-5.327 6.58a5.333 5.333 0 005.327 5.328 5.333 5.333 0 005.328-5.327c0-2.62-2.125-6.581-5.328-6.581zm0 8.774A2.196 2.196 0 0134.89 36.8c0-1.482 1.25-3.447 2.193-3.447.944 0 2.194 1.965 2.194 3.447 0 1.21-.984 2.194-2.194 2.194zm12.535-8.774c-3.202 0-5.327 3.96-5.327 6.58a5.333 5.333 0 005.327 5.328 5.333 5.333 0 005.328-5.327c0-2.62-2.125-6.581-5.328-6.581zm0 8.774a2.196 2.196 0 01-2.193-2.194c0-1.482 1.25-3.447 2.193-3.447.943 0 2.194 1.965 2.194 3.447 0 1.21-.984 2.194-2.194 2.194zm10.028-1.254c-3.203 0-5.327 3.962-5.327 6.582a5.333 5.333 0 005.327 5.327 5.333 5.333 0 005.327-5.327c0-2.62-2.124-6.581-5.327-6.581zm0 8.775a2.196 2.196 0 01-2.194-2.194c0-1.482 1.251-3.447 2.194-3.447.943 0 2.194 1.965 2.194 3.447 0 1.21-.984 2.194-2.194 2.194zM27.054 37.74c-3.202 0-5.327 3.962-5.327 6.582a5.333 5.333 0 005.327 5.327 5.333 5.333 0 005.328-5.327c0-2.62-2.125-6.581-5.328-6.581zm0 8.775a2.196 2.196 0 01-2.193-2.194c0-1.482 1.25-3.447 2.193-3.447.944 0 2.194 1.965 2.194 3.447 0 1.21-.984 2.194-2.194 2.194z" stroke-width="2" mask="url(#consultation_path-1-inside-1)"/><path d="M46.693 52.783h-1.776v-1.776a1.567 1.567 0 10-3.134 0v1.776h-1.776a1.567 1.567 0 100 3.133h1.776v1.776a1.567 1.567 0 103.134 0v-1.776h1.776a1.567 1.567 0 100-3.133z" stroke-width="2" mask="url(#consultation_path-1-inside-1)"/><path d="M62.197 3.268A47.623 47.623 0 0047.528.972c-12.695 0-24.63 4.944-33.608 13.92C4.944 23.87 0 35.806 0 48.5c0 12.695 4.944 24.63 13.92 33.608 8.978 8.977 20.913 13.92 33.608 13.92a1.567 1.567 0 100-3.133c-11.858 0-23.006-4.618-31.391-13.003C7.752 71.507 3.134 60.358 3.134 48.5s4.618-23.006 13.003-31.392C24.522 8.723 35.67 4.106 47.528 4.106c4.692 0 9.302.721 13.705 2.144a1.581 1.581 0 001.973-1.009 1.582 1.582 0 00-1.01-1.973z" stroke-width="2" mask="url(#consultation_path-1-inside-1)"/><path d="M106.612 43.927l-5.502-6.289a1.583 1.583 0 00-2.211-.147l-4.383 3.834a47.533 47.533 0 00-13.38-26.433 47.661 47.661 0 00-11.538-8.51 1.581 1.581 0 00-2.115.657 1.582 1.582 0 00.657 2.116 44.546 44.546 0 0110.78 7.953c7.486 7.486 11.923 16.992 12.83 27.488.108 1.252 1.645 1.874 2.593 1.044l5.439-4.76 3.439 3.931L91.03 55.48c-.972.85-2.467.85-3.439 0L75.4 44.81l3.439-3.93 5 4.375c1.057.925 2.752.03 2.588-1.362C84.108 24.188 67.385 9.328 47.528 9.328c-21.6 0-39.171 17.573-39.171 39.172 0 21.6 17.572 39.171 39.171 39.171a1.567 1.567 0 100-3.133C27.657 84.538 11.49 68.37 11.49 48.5c0-19.872 16.167-36.038 36.038-36.038 16.792 0 31.149 11.551 35.016 27.497l-2.82-2.468a1.583 1.583 0 00-2.211.147l-5.503 6.29a1.567 1.567 0 00.147 2.21l13.371 11.7c2.139 1.87 5.428 1.87 7.566 0l13.371-11.7c.651-.57.717-1.56.147-2.21z" stroke-width="2" mask="url(#consultation_path-1-inside-1)"/><path d="M73.433 90.387h-11.63C66.983 86.532 75 79.362 75 71.898c0-5.471-4.452-9.923-9.924-9.923-5.472 0-9.923 4.452-9.923 9.923a1.567 1.567 0 103.133 0 6.797 6.797 0 016.79-6.79 6.797 6.797 0 016.79 6.79c0 9.023-15.794 18.617-15.953 18.712a1.582 1.582 0 00-.687 1.818 1.582 1.582 0 001.493 1.093h16.713a1.567 1.567 0 000-3.134zm25.07-6.685h-3.447v-20.16c0-.642-.407-1.234-1.006-1.464a1.582 1.582 0 00-1.802.508L75.534 84.313c-.777 1.011-.031 2.522 1.242 2.522h15.147v5.119a1.567 1.567 0 103.133 0v-5.118h3.447a1.566 1.566 0 100-3.134zm-6.58 0H79.957L91.923 68.15v15.553z" stroke-width="2" mask="url(#consultation_path-1-inside-1)"/></symbol><symbol viewBox="0 0 59 59" fill="none" id="crown"><g clip-path="url(#crown_clip0)"><path d="M49.781 40.284H9.22a.922.922 0 01-.872-.623L2.283 21.975a.923.923 0 011.018-1.209.92.92 0 01.788.548c.75 1.703 3.416 7.198 6.527 7.198l.117-.003c1.877-.084 4.811-2.249 8.136-12.086a.922.922 0 011.746 0c1.136 3.355 4.94 12.035 8.891 12.035h.032c1.873-.023 4.753-2.126 7.838-12.014a.922.922 0 01.88-.647h.009a.921.921 0 01.876.665c.943 3.246 4.286 11.749 8.387 12.104 2.396.197 5.052-2.514 7.675-7.87a.921.921 0 011.7.704l-6.25 18.26a.922.922 0 01-.872.624zM9.877 38.44h39.245l3.612-10.553c-1.746 1.847-3.518 2.671-5.366 2.516-4.542-.395-7.659-6.94-9.108-10.787-2.56 7.145-5.417 10.646-8.7 10.684l-.054.001c-4.59 0-8.133-7.036-9.738-10.917-2.739 7.227-5.678 10.82-8.953 10.967-1.68.065-3.141-.772-4.4-2.013L9.877 38.44z" fill="#A07B50" stroke="#1F1C1D" stroke-width=".8"/></g></symbol><symbol viewBox="0 0 71 108" id="nutrition"><path d="M70.438 33.067l-6.565-14.91V1.585C63.873.43 62.627-.35 61.6.168l-5.998 3.027L49.604.168a1.556 1.556 0 00-1.405 0L42.2 3.195 36.203.168a1.556 1.556 0 00-1.405 0l-5.999 3.027L22.801.168a1.556 1.556 0 00-1.404 0l-5.999 3.027L9.4.168C8.374-.351 7.127.429 7.127 1.585v16.572L.562 33.067a1.602 1.602 0 00-.135.644v72.704c0 .875.703 1.585 1.57 1.585h67.006c.868 0 1.57-.71 1.57-1.585V33.711c0-.222-.045-.44-.135-.644zM10.268 4.15l4.428 2.235c.442.223.963.223 1.405 0l5.998-3.027 5.998 3.027c.442.223.963.223 1.405 0L35.5 3.358l5.998 3.027c.442.223.963.223 1.405 0l5.998-3.027 5.998 3.027c.442.223.963.223 1.405 0l4.428-2.235v12.758H10.268V4.15zm-6.7 76.797H38.3l6.412 5.178-6.413 5.178H3.569V80.947zm40.308-45.651H54.03v69.534H3.568V94.474H38.85c.357 0 .703-.123.981-.348l8.376-6.763c.774-.625.774-1.85 0-2.475l-8.376-6.764a1.563 1.563 0 00-.98-.347H3.567V35.296h32.979c.867 0 1.57-.71 1.57-1.585 0-.876-.703-1.586-1.57-1.586H4.414l5.305-12.047h50.167l-5.304 12.047H43.876c-.868 0-1.57.71-1.57 1.586 0 .875.702 1.585 1.57 1.585zm23.557 69.534h-10.26V34.047l5.13-11.65 5.13 11.65v70.783z"/><path d="M28.8 50.724c-7.101 0-12.878 5.831-12.878 12.998 0 6.55 4.814 10.462 12.877 10.462 8.064 0 12.878-3.911 12.878-10.462 0-7.167-5.777-12.998-12.878-12.998zm0 20.29c-3.637 0-9.737-.948-9.737-7.292 0-5.42 4.368-9.828 9.736-9.828 5.37 0 9.737 4.409 9.737 9.828 0 6.345-6.1 7.292-9.737 7.292zm-6.282-32.971c-3.21 0-5.34 4.007-5.34 6.658 0 2.972 2.395 5.39 5.34 5.39 2.944 0 5.34-2.418 5.34-5.39 0-2.65-2.13-6.658-5.34-6.658zm0 8.877a2.211 2.211 0 01-2.2-2.22c0-1.498 1.254-3.487 2.2-3.487.945 0 2.198 1.988 2.198 3.488 0 1.223-.986 2.219-2.198 2.219zm12.563-8.877c-3.21 0-5.34 4.007-5.34 6.658 0 2.972 2.396 5.39 5.34 5.39s5.34-2.418 5.34-5.39c0-2.65-2.13-6.658-5.34-6.658zm0 8.877a2.211 2.211 0 01-2.199-2.22c0-1.498 1.254-3.487 2.2-3.487.944 0 2.198 1.988 2.198 3.488a2.212 2.212 0 01-2.199 2.219zm10.051-1.268c-3.21 0-5.34 4.007-5.34 6.657 0 2.972 2.396 5.39 5.34 5.39s5.34-2.418 5.34-5.39c0-2.65-2.13-6.657-5.34-6.657zm0 8.877a2.212 2.212 0 01-2.199-2.22c0-1.5 1.254-3.487 2.199-3.487.945 0 2.199 1.988 2.199 3.487 0 1.224-.987 2.22-2.199 2.22zm-32.665-8.877c-3.21 0-5.34 4.007-5.34 6.657 0 2.972 2.395 5.39 5.34 5.39 2.944 0 5.34-2.418 5.34-5.39 0-2.65-2.13-6.657-5.34-6.657zm0 8.877a2.212 2.212 0 01-2.199-2.22c0-1.5 1.253-3.487 2.199-3.487.945 0 2.198 1.988 2.198 3.487 0 1.224-.986 2.22-2.198 2.22zm2.931 43.538h-6.7c-.868 0-1.57.71-1.57 1.585s.702 1.585 1.57 1.585h6.7c.868 0 1.57-.71 1.57-1.585 0-.876-.702-1.585-1.57-1.585zm21.777 0H22.1c-.867 0-1.57.71-1.57 1.585s.703 1.585 1.57 1.585h15.076c.868 0 1.57-.71 1.57-1.585 0-.876-.702-1.585-1.57-1.585zM20.424 84.54H8.698c-.868 0-1.57.71-1.57 1.585 0 .876.702 1.586 1.57 1.586h11.726c.867 0 1.57-.71 1.57-1.585 0-.876-.703-1.586-1.57-1.586zm15.076 0h-8.376c-.867 0-1.57.71-1.57 1.585 0 .876.703 1.586 1.57 1.586H35.5c.867 0 1.57-.71 1.57-1.585 0-.876-.702-1.586-1.57-1.586z"/><path d="M70.438 33.067l-6.565-14.91V1.585C63.873.43 62.627-.35 61.6.168l-5.998 3.027L49.604.168a1.556 1.556 0 00-1.405 0L42.2 3.195 36.203.168a1.556 1.556 0 00-1.405 0l-5.999 3.027L22.801.168a1.556 1.556 0 00-1.404 0l-5.999 3.027L9.4.168C8.374-.351 7.127.429 7.127 1.585v16.572L.562 33.067a1.602 1.602 0 00-.135.644v72.704c0 .875.703 1.585 1.57 1.585h67.006c.868 0 1.57-.71 1.57-1.585V33.711c0-.222-.045-.44-.135-.644zM10.268 4.15l4.428 2.235c.442.223.963.223 1.405 0l5.998-3.027 5.998 3.027c.442.223.963.223 1.405 0L35.5 3.358l5.998 3.027c.442.223.963.223 1.405 0l5.998-3.027 5.998 3.027c.442.223.963.223 1.405 0l4.428-2.235v12.758H10.268V4.15zm-6.7 76.797H38.3l6.412 5.178-6.413 5.178H3.569V80.947zm40.308-45.651H54.03v69.534H3.568V94.474H38.85c.357 0 .703-.123.981-.348l8.376-6.763c.774-.625.774-1.85 0-2.475l-8.376-6.764a1.563 1.563 0 00-.98-.347H3.567V35.296h32.979c.867 0 1.57-.71 1.57-1.585 0-.876-.703-1.586-1.57-1.586H4.414l5.305-12.047h50.167l-5.304 12.047H43.876c-.868 0-1.57.71-1.57 1.586 0 .875.702 1.585 1.57 1.585zm23.557 69.534h-10.26V34.047l5.13-11.65 5.13 11.65v70.783z" stroke-width="2" mask="url(#nutrition_path-1-inside-1)"/><path d="M28.8 50.724c-7.101 0-12.878 5.831-12.878 12.998 0 6.55 4.814 10.462 12.877 10.462 8.064 0 12.878-3.911 12.878-10.462 0-7.167-5.777-12.998-12.878-12.998zm0 20.29c-3.637 0-9.737-.948-9.737-7.292 0-5.42 4.368-9.828 9.736-9.828 5.37 0 9.737 4.409 9.737 9.828 0 6.345-6.1 7.292-9.737 7.292zm-6.282-32.971c-3.21 0-5.34 4.007-5.34 6.658 0 2.972 2.395 5.39 5.34 5.39 2.944 0 5.34-2.418 5.34-5.39 0-2.65-2.13-6.658-5.34-6.658zm0 8.877a2.211 2.211 0 01-2.2-2.22c0-1.498 1.254-3.487 2.2-3.487.945 0 2.198 1.988 2.198 3.488 0 1.223-.986 2.219-2.198 2.219zm12.563-8.877c-3.21 0-5.34 4.007-5.34 6.658 0 2.972 2.396 5.39 5.34 5.39s5.34-2.418 5.34-5.39c0-2.65-2.13-6.658-5.34-6.658zm0 8.877a2.211 2.211 0 01-2.199-2.22c0-1.498 1.254-3.487 2.2-3.487.944 0 2.198 1.988 2.198 3.488a2.212 2.212 0 01-2.199 2.219zm10.051-1.268c-3.21 0-5.34 4.007-5.34 6.657 0 2.972 2.396 5.39 5.34 5.39s5.34-2.418 5.34-5.39c0-2.65-2.13-6.657-5.34-6.657zm0 8.877a2.212 2.212 0 01-2.199-2.22c0-1.5 1.254-3.487 2.199-3.487.945 0 2.199 1.988 2.199 3.487 0 1.224-.987 2.22-2.199 2.22zm-32.665-8.877c-3.21 0-5.34 4.007-5.34 6.657 0 2.972 2.395 5.39 5.34 5.39 2.944 0 5.34-2.418 5.34-5.39 0-2.65-2.13-6.657-5.34-6.657zm0 8.877a2.212 2.212 0 01-2.199-2.22c0-1.5 1.253-3.487 2.199-3.487.945 0 2.198 1.988 2.198 3.487 0 1.224-.986 2.22-2.198 2.22zm2.931 43.538h-6.7c-.868 0-1.57.71-1.57 1.585s.702 1.585 1.57 1.585h6.7c.868 0 1.57-.71 1.57-1.585 0-.876-.702-1.585-1.57-1.585zm21.777 0H22.1c-.867 0-1.57.71-1.57 1.585s.703 1.585 1.57 1.585h15.076c.868 0 1.57-.71 1.57-1.585 0-.876-.702-1.585-1.57-1.585zM20.424 84.54H8.698c-.868 0-1.57.71-1.57 1.585 0 .876.702 1.586 1.57 1.586h11.726c.867 0 1.57-.71 1.57-1.585 0-.876-.703-1.586-1.57-1.586zm15.076 0h-8.376c-.867 0-1.57.71-1.57 1.585 0 .876.703 1.586 1.57 1.586H35.5c.867 0 1.57-.71 1.57-1.585 0-.876-.702-1.586-1.57-1.586z" stroke-width="2" mask="url(#nutrition_path-1-inside-1)"/></symbol><symbol viewBox="0 0 99 107" id="service"><path d="M13.903 23.452C6.571 23.452.607 29.417.607 36.748c0 6.8 5.132 12.421 11.726 13.2V60.2a1.57 1.57 0 003.14 0V49.95c6.595-.78 11.727-6.4 11.727-13.2 0-7.332-5.965-13.297-13.297-13.297zm0 23.452c-5.6 0-10.155-4.556-10.155-10.156 0-5.6 4.555-10.155 10.155-10.155S24.06 31.149 24.06 36.748c0 5.6-4.556 10.156-10.156 10.156z"/><path d="M13.903 30.153a6.604 6.604 0 00-6.596 6.596 6.604 6.604 0 006.596 6.596 6.604 6.604 0 006.596-6.596 6.604 6.604 0 00-6.596-6.596zm0 10.05a3.459 3.459 0 01-3.455-3.454 3.459 3.459 0 013.455-3.455 3.459 3.459 0 013.455 3.455 3.459 3.459 0 01-3.455 3.455zm82.92-2.513h-.942V10.785c0-4.56-3.71-8.271-8.271-8.271h-3.455V1.57A1.57 1.57 0 0082.585 0h-4.189a4.088 4.088 0 00-4.083 4.083 4.088 4.088 0 004.083 4.083h4.188a1.57 1.57 0 001.57-1.57v-.943h3.456a5.136 5.136 0 015.13 5.13V37.69h-.942a1.57 1.57 0 00-1.571 1.571v2.513c0 6.985-5.683 12.668-12.668 12.668H57.457c-6.985 0-12.668-5.683-12.668-12.668V39.26a1.57 1.57 0 00-1.57-1.57h-.943V10.784a5.136 5.136 0 015.13-5.13h3.455v.942c0 .867.703 1.57 1.57 1.57h4.188a4.088 4.088 0 004.084-4.083A4.088 4.088 0 0056.618 0H52.43a1.57 1.57 0 00-1.57 1.57v.943h-3.455c-4.56 0-8.27 3.71-8.27 8.27v26.908h-.943a1.57 1.57 0 00-1.57 1.57v2.513c0 11.488 9.346 20.835 20.834 20.835h5.968v7.642c0 .868.703 1.57 1.57 1.57h.942v8.481c0 12.99-10.567 23.557-23.556 23.557h-3.35c-12.99 0-23.557-10.567-23.557-23.557V67.808a1.57 1.57 0 00-3.141 0v12.494C12.333 95.023 24.309 107 39.03 107h3.35c14.721 0 26.698-11.977 26.698-26.698v-8.48h.942a1.57 1.57 0 001.57-1.57v-7.643h5.968c11.488 0 20.835-9.347 20.835-20.835V39.26c0-.867-.704-1.57-1.571-1.57zM81.013 5.026h-2.617a.943.943 0 010-1.884h2.618v1.884zm-27.01-1.885h2.617a.943.943 0 010 1.884h-2.617V3.141zm41.25 38.633c0 9.756-7.937 17.694-17.693 17.694h-7.54a1.57 1.57 0 00-1.57 1.57v7.643h-1.885v-7.643a1.57 1.57 0 00-1.57-1.57h-7.539c-9.756 0-17.694-7.938-17.694-17.694v-.942h1.885v.942c0 8.717 7.092 15.81 15.81 15.81h20.101c8.718 0 15.81-7.093 15.81-15.81v-.942h1.884v.942z"/><path d="M67.508 25.127c-7.1 0-12.878 5.777-12.878 12.878 0 6.49 4.814 10.365 12.878 10.365s12.877-3.875 12.877-10.365c0-7.1-5.776-12.878-12.877-12.878zm0 20.102c-3.636 0-9.737-.939-9.737-7.224 0-5.369 4.368-9.737 9.737-9.737s9.737 4.368 9.737 9.737c0 6.285-6.1 7.224-9.737 7.224zm-6.282-32.665c-3.21 0-5.34 3.97-5.34 6.596a5.345 5.345 0 005.34 5.34 5.345 5.345 0 005.34-5.34c0-2.626-2.13-6.596-5.34-6.596zm0 8.794a2.201 2.201 0 01-2.199-2.198c0-1.486 1.254-3.455 2.2-3.455.944 0 2.198 1.97 2.198 3.455a2.202 2.202 0 01-2.199 2.198zm12.564-8.794c-3.21 0-5.34 3.97-5.34 6.596a5.345 5.345 0 005.34 5.34 5.345 5.345 0 005.34-5.34c0-2.626-2.13-6.596-5.34-6.596zm0 8.794a2.201 2.201 0 01-2.2-2.198c0-1.486 1.254-3.455 2.2-3.455.945 0 2.198 1.97 2.198 3.455a2.201 2.201 0 01-2.198 2.198zm10.05-1.256c-3.21 0-5.339 3.97-5.339 6.596a5.345 5.345 0 005.34 5.34 5.345 5.345 0 005.34-5.34c0-2.626-2.13-6.596-5.34-6.596zm0 8.794a2.201 2.201 0 01-2.198-2.198c0-1.486 1.253-3.455 2.199-3.455.945 0 2.198 1.97 2.198 3.455a2.201 2.201 0 01-2.198 2.198zm-32.665-8.794c-3.21 0-5.34 3.97-5.34 6.596a5.345 5.345 0 005.34 5.34 5.345 5.345 0 005.34-5.34c0-2.626-2.13-6.596-5.34-6.596zm0 8.794a2.201 2.201 0 01-2.198-2.198c0-1.486 1.253-3.455 2.198-3.455.946 0 2.199 1.97 2.199 3.455a2.201 2.201 0 01-2.199 2.198z"/><path d="M13.903 23.452C6.571 23.452.607 29.417.607 36.748c0 6.8 5.132 12.421 11.726 13.2V60.2a1.57 1.57 0 003.14 0V49.95c6.595-.78 11.727-6.4 11.727-13.2 0-7.332-5.965-13.297-13.297-13.297zm0 23.452c-5.6 0-10.155-4.556-10.155-10.156 0-5.6 4.555-10.155 10.155-10.155S24.06 31.149 24.06 36.748c0 5.6-4.556 10.156-10.156 10.156z" stroke-width="2" mask="url(#service_path-1-inside-1)"/><path d="M13.903 30.153a6.604 6.604 0 00-6.596 6.596 6.604 6.604 0 006.596 6.596 6.604 6.604 0 006.596-6.596 6.604 6.604 0 00-6.596-6.596zm0 10.05a3.459 3.459 0 01-3.455-3.454 3.459 3.459 0 013.455-3.455 3.459 3.459 0 013.455 3.455 3.459 3.459 0 01-3.455 3.455zm82.92-2.513h-.942V10.785c0-4.56-3.71-8.271-8.271-8.271h-3.455V1.57A1.57 1.57 0 0082.585 0h-4.189a4.088 4.088 0 00-4.083 4.083 4.088 4.088 0 004.083 4.083h4.188a1.57 1.57 0 001.57-1.57v-.943h3.456a5.136 5.136 0 015.13 5.13V37.69h-.942a1.57 1.57 0 00-1.571 1.571v2.513c0 6.985-5.683 12.668-12.668 12.668H57.457c-6.985 0-12.668-5.683-12.668-12.668V39.26a1.57 1.57 0 00-1.57-1.57h-.943V10.784a5.136 5.136 0 015.13-5.13h3.455v.942c0 .867.703 1.57 1.57 1.57h4.188a4.088 4.088 0 004.084-4.083A4.088 4.088 0 0056.618 0H52.43a1.57 1.57 0 00-1.57 1.57v.943h-3.455c-4.56 0-8.27 3.71-8.27 8.27v26.908h-.943a1.57 1.57 0 00-1.57 1.57v2.513c0 11.488 9.346 20.835 20.834 20.835h5.968v7.642c0 .868.703 1.57 1.57 1.57h.942v8.481c0 12.99-10.567 23.557-23.556 23.557h-3.35c-12.99 0-23.557-10.567-23.557-23.557V67.808a1.57 1.57 0 00-3.141 0v12.494C12.333 95.023 24.309 107 39.03 107h3.35c14.721 0 26.698-11.977 26.698-26.698v-8.48h.942a1.57 1.57 0 001.57-1.57v-7.643h5.968c11.488 0 20.835-9.347 20.835-20.835V39.26c0-.867-.704-1.57-1.571-1.57zM81.013 5.026h-2.617a.943.943 0 010-1.884h2.618v1.884zm-27.01-1.885h2.617a.943.943 0 010 1.884h-2.617V3.141zm41.25 38.633c0 9.756-7.937 17.694-17.693 17.694h-7.54a1.57 1.57 0 00-1.57 1.57v7.643h-1.885v-7.643a1.57 1.57 0 00-1.57-1.57h-7.539c-9.756 0-17.694-7.938-17.694-17.694v-.942h1.885v.942c0 8.717 7.092 15.81 15.81 15.81h20.101c8.718 0 15.81-7.093 15.81-15.81v-.942h1.884v.942z" stroke-width="2" mask="url(#service_path-1-inside-1)"/><path d="M67.508 25.127c-7.1 0-12.878 5.777-12.878 12.878 0 6.49 4.814 10.365 12.878 10.365s12.877-3.875 12.877-10.365c0-7.1-5.776-12.878-12.877-12.878zm0 20.102c-3.636 0-9.737-.939-9.737-7.224 0-5.369 4.368-9.737 9.737-9.737s9.737 4.368 9.737 9.737c0 6.285-6.1 7.224-9.737 7.224zm-6.282-32.665c-3.21 0-5.34 3.97-5.34 6.596a5.345 5.345 0 005.34 5.34 5.345 5.345 0 005.34-5.34c0-2.626-2.13-6.596-5.34-6.596zm0 8.794a2.201 2.201 0 01-2.199-2.198c0-1.486 1.254-3.455 2.2-3.455.944 0 2.198 1.97 2.198 3.455a2.202 2.202 0 01-2.199 2.198zm12.564-8.794c-3.21 0-5.34 3.97-5.34 6.596a5.345 5.345 0 005.34 5.34 5.345 5.345 0 005.34-5.34c0-2.626-2.13-6.596-5.34-6.596zm0 8.794a2.201 2.201 0 01-2.2-2.198c0-1.486 1.254-3.455 2.2-3.455.945 0 2.198 1.97 2.198 3.455a2.201 2.201 0 01-2.198 2.198zm10.05-1.256c-3.21 0-5.339 3.97-5.339 6.596a5.345 5.345 0 005.34 5.34 5.345 5.345 0 005.34-5.34c0-2.626-2.13-6.596-5.34-6.596zm0 8.794a2.201 2.201 0 01-2.198-2.198c0-1.486 1.253-3.455 2.199-3.455.945 0 2.198 1.97 2.198 3.455a2.201 2.201 0 01-2.198 2.198zm-32.665-8.794c-3.21 0-5.34 3.97-5.34 6.596a5.345 5.345 0 005.34 5.34 5.345 5.345 0 005.34-5.34c0-2.626-2.13-6.596-5.34-6.596zm0 8.794a2.201 2.201 0 01-2.198-2.198c0-1.486 1.253-3.455 2.198-3.455.946 0 2.199 1.97 2.199 3.455a2.201 2.201 0 01-2.199 2.198z" stroke-width="2" mask="url(#service_path-1-inside-1)"/></symbol><mask id="consultation_path-1-inside-1"><path d="M43.35 42.755c-7.085 0-12.849 5.764-12.849 12.848 0 6.475 4.804 10.342 12.849 10.342s12.848-3.866 12.848-10.342c0-7.084-5.764-12.848-12.848-12.848zm0 20.055c-3.628 0-9.715-.936-9.715-7.207 0-5.357 4.358-9.715 9.715-9.715 5.356 0 9.715 4.358 9.715 9.715 0 6.271-6.087 7.207-9.715 7.207zm-6.268-32.59c-3.202 0-5.327 3.96-5.327 6.58a5.333 5.333 0 005.327 5.328 5.333 5.333 0 005.328-5.327c0-2.62-2.125-6.581-5.328-6.581zm0 8.774A2.196 2.196 0 0134.89 36.8c0-1.482 1.25-3.447 2.193-3.447.944 0 2.194 1.965 2.194 3.447 0 1.21-.984 2.194-2.194 2.194zm12.535-8.774c-3.202 0-5.327 3.96-5.327 6.58a5.333 5.333 0 005.327 5.328 5.333 5.333 0 005.328-5.327c0-2.62-2.125-6.581-5.328-6.581zm0 8.774a2.196 2.196 0 01-2.193-2.194c0-1.482 1.25-3.447 2.193-3.447.943 0 2.194 1.965 2.194 3.447 0 1.21-.984 2.194-2.194 2.194zm10.028-1.254c-3.203 0-5.327 3.962-5.327 6.582a5.333 5.333 0 005.327 5.327 5.333 5.333 0 005.327-5.327c0-2.62-2.124-6.581-5.327-6.581zm0 8.775a2.196 2.196 0 01-2.194-2.194c0-1.482 1.251-3.447 2.194-3.447.943 0 2.194 1.965 2.194 3.447 0 1.21-.984 2.194-2.194 2.194zM27.054 37.74c-3.202 0-5.327 3.962-5.327 6.582a5.333 5.333 0 005.327 5.327 5.333 5.333 0 005.328-5.327c0-2.62-2.125-6.581-5.328-6.581zm0 8.775a2.196 2.196 0 01-2.193-2.194c0-1.482 1.25-3.447 2.193-3.447.944 0 2.194 1.965 2.194 3.447 0 1.21-.984 2.194-2.194 2.194z"/><path d="M46.693 52.783h-1.776v-1.776a1.567 1.567 0 10-3.134 0v1.776h-1.776a1.567 1.567 0 100 3.133h1.776v1.776a1.567 1.567 0 103.134 0v-1.776h1.776a1.567 1.567 0 100-3.133z"/><path d="M62.197 3.268A47.623 47.623 0 0047.528.972c-12.695 0-24.63 4.944-33.608 13.92C4.944 23.87 0 35.806 0 48.5c0 12.695 4.944 24.63 13.92 33.608 8.978 8.977 20.913 13.92 33.608 13.92a1.567 1.567 0 100-3.133c-11.858 0-23.006-4.618-31.391-13.003C7.752 71.507 3.134 60.358 3.134 48.5s4.618-23.006 13.003-31.392C24.522 8.723 35.67 4.106 47.528 4.106c4.692 0 9.302.721 13.705 2.144a1.581 1.581 0 001.973-1.009 1.582 1.582 0 00-1.01-1.973z"/><path d="M106.612 43.927l-5.502-6.289a1.583 1.583 0 00-2.211-.147l-4.383 3.834a47.533 47.533 0 00-13.38-26.433 47.661 47.661 0 00-11.538-8.51 1.581 1.581 0 00-2.115.657 1.582 1.582 0 00.657 2.116 44.546 44.546 0 0110.78 7.953c7.486 7.486 11.923 16.992 12.83 27.488.108 1.252 1.645 1.874 2.593 1.044l5.439-4.76 3.439 3.931L91.03 55.48c-.972.85-2.467.85-3.439 0L75.4 44.81l3.439-3.93 5 4.375c1.057.925 2.752.03 2.588-1.362C84.108 24.188 67.385 9.328 47.528 9.328c-21.6 0-39.171 17.573-39.171 39.172 0 21.6 17.572 39.171 39.171 39.171a1.567 1.567 0 100-3.133C27.657 84.538 11.49 68.37 11.49 48.5c0-19.872 16.167-36.038 36.038-36.038 16.792 0 31.149 11.551 35.016 27.497l-2.82-2.468a1.583 1.583 0 00-2.211.147l-5.503 6.29a1.567 1.567 0 00.147 2.21l13.371 11.7c2.139 1.87 5.428 1.87 7.566 0l13.371-11.7c.651-.57.717-1.56.147-2.21z"/><path d="M73.433 90.387h-11.63C66.983 86.532 75 79.362 75 71.898c0-5.471-4.452-9.923-9.924-9.923-5.472 0-9.923 4.452-9.923 9.923a1.567 1.567 0 103.133 0 6.797 6.797 0 016.79-6.79 6.797 6.797 0 016.79 6.79c0 9.023-15.794 18.617-15.953 18.712a1.582 1.582 0 00-.687 1.818 1.582 1.582 0 001.493 1.093h16.713a1.567 1.567 0 000-3.134zm25.07-6.685h-3.447v-20.16c0-.642-.407-1.234-1.006-1.464a1.582 1.582 0 00-1.802.508L75.534 84.313c-.777 1.011-.031 2.522 1.242 2.522h15.147v5.119a1.567 1.567 0 103.133 0v-5.118h3.447a1.566 1.566 0 100-3.134zm-6.58 0H79.957L91.923 68.15v15.553z"/></mask><mask id="nutrition_path-1-inside-1"><path d="M70.438 33.067l-6.565-14.91V1.585C63.873.43 62.627-.35 61.6.168l-5.998 3.027L49.604.168a1.556 1.556 0 00-1.405 0L42.2 3.195 36.203.168a1.556 1.556 0 00-1.405 0l-5.999 3.027L22.801.168a1.556 1.556 0 00-1.404 0l-5.999 3.027L9.4.168C8.374-.351 7.127.429 7.127 1.585v16.572L.562 33.067a1.602 1.602 0 00-.135.644v72.704c0 .875.703 1.585 1.57 1.585h67.006c.868 0 1.57-.71 1.57-1.585V33.711c0-.222-.045-.44-.135-.644zM10.268 4.15l4.428 2.235c.442.223.963.223 1.405 0l5.998-3.027 5.998 3.027c.442.223.963.223 1.405 0L35.5 3.358l5.998 3.027c.442.223.963.223 1.405 0l5.998-3.027 5.998 3.027c.442.223.963.223 1.405 0l4.428-2.235v12.758H10.268V4.15zm-6.7 76.797H38.3l6.412 5.178-6.413 5.178H3.569V80.947zm40.308-45.651H54.03v69.534H3.568V94.474H38.85c.357 0 .703-.123.981-.348l8.376-6.763c.774-.625.774-1.85 0-2.475l-8.376-6.764a1.563 1.563 0 00-.98-.347H3.567V35.296h32.979c.867 0 1.57-.71 1.57-1.585 0-.876-.703-1.586-1.57-1.586H4.414l5.305-12.047h50.167l-5.304 12.047H43.876c-.868 0-1.57.71-1.57 1.586 0 .875.702 1.585 1.57 1.585zm23.557 69.534h-10.26V34.047l5.13-11.65 5.13 11.65v70.783z"/><path d="M28.8 50.724c-7.101 0-12.878 5.831-12.878 12.998 0 6.55 4.814 10.462 12.877 10.462 8.064 0 12.878-3.911 12.878-10.462 0-7.167-5.777-12.998-12.878-12.998zm0 20.29c-3.637 0-9.737-.948-9.737-7.292 0-5.42 4.368-9.828 9.736-9.828 5.37 0 9.737 4.409 9.737 9.828 0 6.345-6.1 7.292-9.737 7.292zm-6.282-32.971c-3.21 0-5.34 4.007-5.34 6.658 0 2.972 2.395 5.39 5.34 5.39 2.944 0 5.34-2.418 5.34-5.39 0-2.65-2.13-6.658-5.34-6.658zm0 8.877a2.211 2.211 0 01-2.2-2.22c0-1.498 1.254-3.487 2.2-3.487.945 0 2.198 1.988 2.198 3.488 0 1.223-.986 2.219-2.198 2.219zm12.563-8.877c-3.21 0-5.34 4.007-5.34 6.658 0 2.972 2.396 5.39 5.34 5.39s5.34-2.418 5.34-5.39c0-2.65-2.13-6.658-5.34-6.658zm0 8.877a2.211 2.211 0 01-2.199-2.22c0-1.498 1.254-3.487 2.2-3.487.944 0 2.198 1.988 2.198 3.488a2.212 2.212 0 01-2.199 2.219zm10.051-1.268c-3.21 0-5.34 4.007-5.34 6.657 0 2.972 2.396 5.39 5.34 5.39s5.34-2.418 5.34-5.39c0-2.65-2.13-6.657-5.34-6.657zm0 8.877a2.212 2.212 0 01-2.199-2.22c0-1.5 1.254-3.487 2.199-3.487.945 0 2.199 1.988 2.199 3.487 0 1.224-.987 2.22-2.199 2.22zm-32.665-8.877c-3.21 0-5.34 4.007-5.34 6.657 0 2.972 2.395 5.39 5.34 5.39 2.944 0 5.34-2.418 5.34-5.39 0-2.65-2.13-6.657-5.34-6.657zm0 8.877a2.212 2.212 0 01-2.199-2.22c0-1.5 1.253-3.487 2.199-3.487.945 0 2.198 1.988 2.198 3.487 0 1.224-.986 2.22-2.198 2.22zm2.931 43.538h-6.7c-.868 0-1.57.71-1.57 1.585s.702 1.585 1.57 1.585h6.7c.868 0 1.57-.71 1.57-1.585 0-.876-.702-1.585-1.57-1.585zm21.777 0H22.1c-.867 0-1.57.71-1.57 1.585s.703 1.585 1.57 1.585h15.076c.868 0 1.57-.71 1.57-1.585 0-.876-.702-1.585-1.57-1.585zM20.424 84.54H8.698c-.868 0-1.57.71-1.57 1.585 0 .876.702 1.586 1.57 1.586h11.726c.867 0 1.57-.71 1.57-1.585 0-.876-.703-1.586-1.57-1.586zm15.076 0h-8.376c-.867 0-1.57.71-1.57 1.585 0 .876.703 1.586 1.57 1.586H35.5c.867 0 1.57-.71 1.57-1.585 0-.876-.702-1.586-1.57-1.586z"/></mask><mask id="service_path-1-inside-1"><path d="M13.903 23.452C6.571 23.452.607 29.417.607 36.748c0 6.8 5.132 12.421 11.726 13.2V60.2a1.57 1.57 0 003.14 0V49.95c6.595-.78 11.727-6.4 11.727-13.2 0-7.332-5.965-13.297-13.297-13.297zm0 23.452c-5.6 0-10.155-4.556-10.155-10.156 0-5.6 4.555-10.155 10.155-10.155S24.06 31.149 24.06 36.748c0 5.6-4.556 10.156-10.156 10.156z"/><path d="M13.903 30.153a6.604 6.604 0 00-6.596 6.596 6.604 6.604 0 006.596 6.596 6.604 6.604 0 006.596-6.596 6.604 6.604 0 00-6.596-6.596zm0 10.05a3.459 3.459 0 01-3.455-3.454 3.459 3.459 0 013.455-3.455 3.459 3.459 0 013.455 3.455 3.459 3.459 0 01-3.455 3.455zm82.92-2.513h-.942V10.785c0-4.56-3.71-8.271-8.271-8.271h-3.455V1.57A1.57 1.57 0 0082.585 0h-4.189a4.088 4.088 0 00-4.083 4.083 4.088 4.088 0 004.083 4.083h4.188a1.57 1.57 0 001.57-1.57v-.943h3.456a5.136 5.136 0 015.13 5.13V37.69h-.942a1.57 1.57 0 00-1.571 1.571v2.513c0 6.985-5.683 12.668-12.668 12.668H57.457c-6.985 0-12.668-5.683-12.668-12.668V39.26a1.57 1.57 0 00-1.57-1.57h-.943V10.784a5.136 5.136 0 015.13-5.13h3.455v.942c0 .867.703 1.57 1.57 1.57h4.188a4.088 4.088 0 004.084-4.083A4.088 4.088 0 0056.618 0H52.43a1.57 1.57 0 00-1.57 1.57v.943h-3.455c-4.56 0-8.27 3.71-8.27 8.27v26.908h-.943a1.57 1.57 0 00-1.57 1.57v2.513c0 11.488 9.346 20.835 20.834 20.835h5.968v7.642c0 .868.703 1.57 1.57 1.57h.942v8.481c0 12.99-10.567 23.557-23.556 23.557h-3.35c-12.99 0-23.557-10.567-23.557-23.557V67.808a1.57 1.57 0 00-3.141 0v12.494C12.333 95.023 24.309 107 39.03 107h3.35c14.721 0 26.698-11.977 26.698-26.698v-8.48h.942a1.57 1.57 0 001.57-1.57v-7.643h5.968c11.488 0 20.835-9.347 20.835-20.835V39.26c0-.867-.704-1.57-1.571-1.57zM81.013 5.026h-2.617a.943.943 0 010-1.884h2.618v1.884zm-27.01-1.885h2.617a.943.943 0 010 1.884h-2.617V3.141zm41.25 38.633c0 9.756-7.937 17.694-17.693 17.694h-7.54a1.57 1.57 0 00-1.57 1.57v7.643h-1.885v-7.643a1.57 1.57 0 00-1.57-1.57h-7.539c-9.756 0-17.694-7.938-17.694-17.694v-.942h1.885v.942c0 8.717 7.092 15.81 15.81 15.81h20.101c8.718 0 15.81-7.093 15.81-15.81v-.942h1.884v.942z"/><path d="M67.508 25.127c-7.1 0-12.878 5.777-12.878 12.878 0 6.49 4.814 10.365 12.878 10.365s12.877-3.875 12.877-10.365c0-7.1-5.776-12.878-12.877-12.878zm0 20.102c-3.636 0-9.737-.939-9.737-7.224 0-5.369 4.368-9.737 9.737-9.737s9.737 4.368 9.737 9.737c0 6.285-6.1 7.224-9.737 7.224zm-6.282-32.665c-3.21 0-5.34 3.97-5.34 6.596a5.345 5.345 0 005.34 5.34 5.345 5.345 0 005.34-5.34c0-2.626-2.13-6.596-5.34-6.596zm0 8.794a2.201 2.201 0 01-2.199-2.198c0-1.486 1.254-3.455 2.2-3.455.944 0 2.198 1.97 2.198 3.455a2.202 2.202 0 01-2.199 2.198zm12.564-8.794c-3.21 0-5.34 3.97-5.34 6.596a5.345 5.345 0 005.34 5.34 5.345 5.345 0 005.34-5.34c0-2.626-2.13-6.596-5.34-6.596zm0 8.794a2.201 2.201 0 01-2.2-2.198c0-1.486 1.254-3.455 2.2-3.455.945 0 2.198 1.97 2.198 3.455a2.201 2.201 0 01-2.198 2.198zm10.05-1.256c-3.21 0-5.339 3.97-5.339 6.596a5.345 5.345 0 005.34 5.34 5.345 5.345 0 005.34-5.34c0-2.626-2.13-6.596-5.34-6.596zm0 8.794a2.201 2.201 0 01-2.198-2.198c0-1.486 1.253-3.455 2.199-3.455.945 0 2.198 1.97 2.198 3.455a2.201 2.201 0 01-2.198 2.198zm-32.665-8.794c-3.21 0-5.34 3.97-5.34 6.596a5.345 5.345 0 005.34 5.34 5.345 5.345 0 005.34-5.34c0-2.626-2.13-6.596-5.34-6.596zm0 8.794a2.201 2.201 0 01-2.198-2.198c0-1.486 1.253-3.455 2.198-3.455.946 0 2.199 1.97 2.199 3.455a2.201 2.201 0 01-2.199 2.198z"/></mask><clipPath id="crown_clip0"><path fill="#fff" d="M0 0h59v59H0z"/></clipPath></defs></svg>